<mxfile host="app.diagrams.net" modified="2024-05-28T19:46:13.881Z" agent="Mozilla/5.0 (Windows NT 10.0; Win64; x64) AppleWebKit/537.36 (KHTML, like Gecko) Chrome/125.0.0.0 Safari/537.36" version="24.4.9" etag="JFffrWOPEgQ2168bcP0i" type="device">
  <diagram id="OdYPgnSK5Sjrh4ehZY6R" name="Сторінка-1">
    <mxGraphModel dx="1985" dy="1115" grid="1" gridSize="10" guides="1" tooltips="1" connect="1" arrows="1" fold="1" page="1" pageScale="1" pageWidth="827" pageHeight="1169" math="0" shadow="0">
      <root>
        <mxCell id="0" />
        <mxCell id="1" parent="0" />
        <mxCell id="J2T_fc1nqypUv63yEjl5-3" value="" style="swimlane;startSize=0;" vertex="1" parent="1">
          <mxGeometry x="160" y="220" width="200" height="200" as="geometry" />
        </mxCell>
      </root>
    </mxGraphModel>
  </diagram>
</mxfile>
